<?xml version="1.0" encoding="UTF-8"?><svg id="Layer_1" xmlns="http://www.w3.org/2000/svg" viewBox="0 0 109 104"><defs><style>.cls-1{fill:none;}.cls-1,.cls-2,.cls-3,.cls-4{stroke-miterlimit:10;}.cls-1,.cls-2,.cls-3,.cls-4,.cls-5{stroke:#000;}.cls-1,.cls-3,.cls-4{stroke-width:1.5px;}.cls-2,.cls-5{fill:#da291c;}.cls-6{fill:#f4f4f4;}.cls-3{fill:#fff;}.cls-4{fill:#ececec;}.cls-5{stroke-linecap:round;stroke-linejoin:round;}.cls-7{fill:#bbbcbc;}</style></defs><g><rect class="cls-4" x="23" y="30.28" width="29.44" height="25.83" rx="1.48" ry="1.48"/><path class="cls-4" d="M59.52,52.41l-7.08-3.45v-11.29l7.08-3.45c1.35,0,1.35,1.14,1.35,2.55v13.1c0,1.41,.23,2.74-1.35,2.55Z"/></g><g id="Group_4654"><path id="Path_5942" class="cls-6" d="M107.85,95.14c0,3.56-15.43,6.45-34.46,6.45s-34.46-2.88-34.46-6.45,15.43-6.45,34.46-6.45,34.46,2.88,34.46,6.45"/></g><g><path id="Path_5943" class="cls-1" d="M73.86,51.89c-.54,0-1.03,.29-1.29,.76l-23.11,41.08c-.27,.48-.27,1.05,0,1.53,.26,.47,.75,.76,1.29,.76h46.22c.54,0,1.03-.3,1.29-.76,.27-.48,.27-1.05,0-1.53l-23.11-41.08c-.26-.47-.75-.76-1.29-.76"/><path id="Path_5944" class="cls-3" d="M73.86,51.89c-.54,0-1.03,.29-1.29,.76l-23.11,41.08c-.27,.48-.27,1.05,0,1.53,.26,.47,.75,.76,1.29,.76h46.22c.54,0,1.03-.3,1.29-.76,.27-.48,.27-1.05,0-1.53l-23.11-41.08c-.26-.47-.75-.76-1.29-.76"/><path id="Path_5946" class="cls-5" d="M73.8,84.52c-1.02-.03-1.88,.78-1.9,1.81-.03,1.02,.78,1.88,1.81,1.9s1.88-.78,1.9-1.81c0-.02,0-.03,0-.05,.03-.99-.75-1.82-1.74-1.86h-.06Z"/><path id="Path_5947" class="cls-2" d="M72.6,80.97h2.41c.34,0,.61-.28,.6-.62h0s.6-12.38,.6-12.38c.03-.31-.2-.59-.51-.62h-3.65c-.16,0-.31,.06-.42,.17-.11,.12-.15,.28-.13,.44l.6,12.38c-.05,.15-.02,.32,.08,.44,.1,.12,.25,.19,.41,.17"/></g><path class="cls-7" d="M41.85,2.64C19.41,2.64,1.15,20.9,1.15,43.34s18.26,40.7,40.7,40.7c2.58,0,5.14-.27,7.66-.74l2.87-5.11c-.07,.01-.15,.02-.22,.04-3.33,.98-6.8,1.48-10.31,1.48-8.73,0-16.76-3.1-23.03-8.25L69.97,20.31c5.15,6.28,8.25,14.3,8.25,23.03,0,1.65-.12,3.29-.34,4.91l3.13,5.57c.17-.23,.3-.5,.38-.79,.77-3.16,1.16-6.42,1.16-9.69,0-22.44-18.26-40.7-40.7-40.7ZM5.48,43.34C5.48,23.29,21.8,6.97,41.85,6.97c9.76,0,18.63,3.87,25.17,10.16L15.64,68.51c-6.28-6.54-10.16-15.41-10.16-25.17Z"/></svg>